<svg xmlns="http://www.w3.org/2000/svg" viewBox="0 0 900 91" fill="none"><path d="M1 79.25V9.69h44.93v10.9H12.75v17.29h24.34v10.43H12.75v20.21h35.06v10.71H1v.02zM50.91 79.25L68.3 53.5 52.13 29.34h12.31l10.43 15.98 10.06-15.98h11.94L80.51 53.5 97.8 79.25H85.49L74.02 61.77 62.74 79.25H50.91zM109.75 66.18V38.55h-8.65v-9.21h8.65V11.95h11.56v17.39h12.88v9.21h-12.88v24.72c0 5.36 1.6 7.52 7.33 7.52 1.69 0 3.85-.28 4.98-.66v9.12c-1.22.28-5.55.66-8.46.66-12.68-.01-15.41-4.71-15.41-13.73zM138.52 54.34c0-18.99 13.44-25.94 23.78-25.94 11.19 0 21.9 6.67 21.9 26.98v2.73h-34.12c.47 9.02 6.02 12.97 13.35 12.97 6.49 0 10.25-2.16 14.01-5.83l6.11 6.02c-5.17 5.73-12.03 9.02-20.96 9.02-12.51-.01-24.07-7.62-24.07-25.95zm35.06-4.89c-.66-7.61-4.42-11.66-11.37-11.66-5.64 0-10.81 3.2-11.94 11.66h23.31zM190.59 79.25V29.33h11.56v7.99c3.76-4.32 9.59-8.93 17.86-8.93 9.12 0 14.76 4.7 14.76 14.57v36.28h-11.56V46.25c0-5.45-2.26-8.27-7.52-8.27-5.08 0-9.31 2.54-13.54 6.49v34.78h-11.56zM241.26 72.38l6.3-7.05c3.76 3.2 9.31 5.92 15.7 5.92 6.2 0 9.96-1.6 9.96-5.73 0-4.04-5.08-5.26-11.09-6.67-8.55-1.97-18.8-4.23-18.8-15.79 0-8.74 7.52-14.66 18.52-14.66 9.49 0 15.32 2.73 20.49 7.05l-5.55 7.52c-3.67-3.01-9.59-5.45-14.1-5.45-6.39 0-8.46 2.26-8.46 5.08 0 4.04 4.98 5.26 10.9 6.58 8.55 1.88 18.99 4.04 18.99 15.7 0 10.53-9.49 15.42-20.87 15.42-9.21-.02-17.48-3.31-21.99-7.92zM290.42 20.69V10.63h11.84v10.06h-11.84zm.1 58.56V29.33h11.66v49.91h-11.66v.01zM308.56 54.34c0-18.42 12.12-25.94 24.34-25.94 12.13 0 24.34 7.52 24.34 25.94 0 18.23-12.22 25.94-24.34 25.94s-24.34-7.71-24.34-25.94zm37.04 0c0-9.31-3.95-16.07-12.69-16.07-8.37 0-12.69 6.02-12.69 16.07 0 9.49 3.85 16.26 12.69 16.26 8.36 0 12.69-6.02 12.69-16.26zM362.61 79.25V29.33h11.56v7.99c3.76-4.32 9.59-8.93 17.86-8.93 9.12 0 14.76 4.7 14.76 14.57v36.28h-11.56V46.25c0-5.45-2.26-8.27-7.52-8.27-5.08 0-9.31 2.54-13.54 6.49v34.78h-11.56zM447.21 79.25L428.69 9.69h11.84l8.83 36c1.41 5.55 2.73 10.71 3.67 16.17h.19c.94-5.36 2.16-10.53 3.57-16.07l8.37-36.09h11.28l8.65 36.28c1.5 5.92 2.63 10.06 3.67 15.88h.19c1.03-6.02 2.07-9.68 3.38-15.6l8.65-36.56h11l-18.33 69.56H483.4l-12.5-53.29h-.19l-13.16 53.29h-10.34v-.01zM509.63 67.21c0-10.81 9.21-18.05 32.52-20.68v-1.5c0-4.98-2.63-7.14-8.18-7.14-6.96 0-12.6 3.38-16.83 6.77l-5.64-7.24c5.36-4.89 13.72-9.02 24.06-9.02 13.35 0 17.95 6.39 17.95 18.05v20.58c0 6.02.38 9.68 1.41 12.22h-11.66c-.66-2.07-1.13-3.57-1.13-6.39-5.08 5.17-11 7.14-18.42 7.14-8.07 0-14.08-4.51-14.08-12.79zm32.52-1.88v-11C528.33 56.21 521 59.59 521 65.04c0 3.95 2.73 6.02 6.96 6.02 5.92.01 10.52-2.25 14.19-5.73zM562.55 79.25V29.33h11.56v8.18h.19c3.1-4.98 8.46-9.12 17.95-9.12h.75l-.38 10.62c-.56-.09-2.44-.19-3.1-.19-7.43 0-12.13 3.48-15.42 8.84v31.58h-11.55v.01zM595.76 54.34c0-18.99 13.44-25.94 23.78-25.94 11.19 0 21.9 6.67 21.9 26.98v2.73h-34.12c.47 9.02 6.02 12.97 13.35 12.97 6.49 0 10.25-2.16 14-5.83l6.11 6.02c-5.17 5.73-12.03 9.02-20.96 9.02-12.49-.01-24.06-7.62-24.06-25.95zm35.06-4.89c-.66-7.61-4.42-11.66-11.37-11.66-5.64 0-10.81 3.2-11.94 11.66h23.31zM648.22 79.25V9.69h11.66V36.1c3.2-3.38 9.21-7.71 18.23-7.71 8.74 0 14.38 5.17 14.38 15.04v35.81h-11.66v-32.9c0-5.54-2.35-8.08-7.43-8.08s-9.31 2.63-13.54 6.49v34.5h-11.64zM698.88 54.34c0-18.42 12.12-25.94 24.34-25.94 12.13 0 24.34 7.52 24.34 25.94 0 18.23-12.22 25.94-24.34 25.94s-24.34-7.71-24.34-25.94zm37.04 0c0-9.31-3.95-16.07-12.69-16.07-8.37 0-12.69 6.02-12.69 16.07 0 9.49 3.85 16.26 12.69 16.26 8.36 0 12.69-6.02 12.69-16.26zM753.4 65.15V29.33h11.66v33.09c0 5.55 2.35 8.08 7.43 8.08s9.31-2.63 13.54-6.49V29.33h11.66v49.91h-11.66v-6.77c-3.2 3.38-9.21 7.71-18.23 7.71-8.76.01-14.4-5.16-14.4-15.03zM804.41 72.38l6.3-7.05c3.76 3.2 9.31 5.92 15.7 5.92 6.2 0 9.96-1.6 9.96-5.73 0-4.04-5.08-5.26-11.09-6.67-8.55-1.97-18.8-4.23-18.8-15.79 0-8.74 7.52-14.66 18.52-14.66 9.49 0 15.32 2.73 20.49 7.05l-5.55 7.52c-3.67-3.01-9.59-5.45-14.1-5.45-6.39 0-8.46 2.26-8.46 5.08 0 4.04 4.98 5.26 10.9 6.58 8.55 1.88 18.99 4.04 18.99 15.7 0 10.53-9.49 15.42-20.87 15.42-9.2-.02-17.47-3.31-21.99-7.92zM851.7 54.34c0-18.99 13.44-25.94 23.78-25.94 11.19 0 21.9 6.67 21.9 26.98v2.73h-34.12c.47 9.02 6.02 12.97 13.35 12.97 6.49 0 10.25-2.16 14-5.83l6.11 6.02c-5.17 5.73-12.03 9.02-20.96 9.02-12.5-.01-24.06-7.62-24.06-25.95zm35.06-4.89c-.66-7.61-4.42-11.66-11.37-11.66-5.64 0-10.81 3.2-11.94 11.66h23.31z" fill="#363545"/></svg>
