<svg xmlns="http://www.w3.org/2000/svg" viewBox="0 0 37 32" fill="none"><path d="M22.23 21.354c-2.233-1.178-5.143-1.182-7.38-.007l-9.246 5.278-5.524-3.18s-.292 4.983 4.734 8.078l.79.447 9.245-5.278c2.238-1.171 5.148-1.171 7.381.007L31.44 32l.442-.27c5.188-2.844 5.103-8.285 5.103-8.285l-5.546 3.206-9.209-5.297zM36.08 2.678L31.476.03l-3.71 2.105 4.596 2.678 3.718-2.135zM23.168 10.055l7.322-4.193-4.608-2.648-3.652 2.094c-2.237 1.171-5.147 1.171-7.38-.007L5.64 0 1.019 2.641l12.86 7.403c2.663 1.525 6.69 1.4 9.29.01z" fill="#005F9E"/><path d="M1.003 21.85l4.604 2.648 8.352-4.769c2.78-1.444 6.392-1.444 9.165.011l8.319 4.787 4.622-2.64-10.227-5.885 5.62-3.225V7.425l-7.4 4.244c-3.353 1.758-7.721 1.758-11.074-.011L.094 4.237v5.349l11.148 6.416-10.24 5.847zM33.304 6.372v5.349L37 9.626V4.278l-3.696 2.094z" fill="#005F9E"/></svg>
